<svg width="41" height="41" viewBox="0 0 41 41" fill="none" xmlns="http://www.w3.org/2000/svg">
<rect width="41" height="41" fill="white"/>
<path d="M15.6474 18.5696C15.4766 18.5525 15.2716 18.5525 15.0836 18.5696C11.0178 18.4329 7.78906 15.1017 7.78906 11.0017C7.78906 6.81625 11.1716 3.41666 15.3741 3.41666C19.5595 3.41666 22.9591 6.81625 22.9591 11.0017C22.942 15.1017 19.7132 18.4329 15.6474 18.5696Z" stroke="#1565D8" stroke-width="2.5625" stroke-linecap="round" stroke-linejoin="round"/>
<path d="M28.0346 6.83334C31.3487 6.83334 34.0137 9.51542 34.0137 12.8125C34.0137 16.0413 31.4513 18.6721 28.2567 18.7917C28.12 18.7746 27.9662 18.7746 27.8125 18.7917" stroke="#1565D8" stroke-width="2.5625" stroke-linecap="round" stroke-linejoin="round"/>
<path d="M7.10648 24.8733C2.97232 27.6408 2.97232 32.1508 7.10648 34.9012C11.8044 38.0446 19.509 38.0446 24.2069 34.9012C28.3411 32.1337 28.3411 27.6237 24.2069 24.8733C19.5261 21.7471 11.8215 21.7471 7.10648 24.8733Z" stroke="#1565D8" stroke-width="2.5625" stroke-linecap="round" stroke-linejoin="round"/>
<path d="M31.3301 34.1667C32.5601 33.9104 33.7217 33.415 34.6784 32.6804C37.3434 30.6817 37.3434 27.3846 34.6784 25.3858C33.7388 24.6683 32.5942 24.19 31.3813 23.9167" stroke="#1565D8" stroke-width="2.5625" stroke-linecap="round" stroke-linejoin="round"/>
</svg>
