<svg width="41" height="41" viewBox="0 0 41 41" fill="none" xmlns="http://www.w3.org/2000/svg">
<rect width="41" height="41" fill="white"/>
<path d="M30.7507 12.2317C30.6482 12.2146 30.5286 12.2146 30.4261 12.2317C28.0686 12.1463 26.1895 10.2158 26.1895 7.82417C26.1895 5.38125 28.154 3.41666 30.5969 3.41666C33.0399 3.41666 35.0044 5.39833 35.0044 7.82417C34.9874 10.2158 33.1082 12.1463 30.7507 12.2317Z" stroke="#1565D8" stroke-width="2.5625" stroke-linecap="round" stroke-linejoin="round"/>
<path d="M28.9917 24.6683C31.3321 25.0613 33.9117 24.6513 35.7225 23.4383C38.1313 21.8325 38.1313 19.2017 35.7225 17.5958C33.8946 16.3829 31.2808 15.9729 28.9404 16.3829" stroke="#1565D8" stroke-width="2.5625" stroke-linecap="round" stroke-linejoin="round"/>
<path d="M10.1991 12.2317C10.3016 12.2146 10.4211 12.2146 10.5236 12.2317C12.8811 12.1463 14.7603 10.2158 14.7603 7.82417C14.7603 5.38125 12.7957 3.41667 10.3528 3.41667C7.9099 3.41667 5.94531 5.39834 5.94531 7.82417C5.9624 10.2158 7.84157 12.1463 10.1991 12.2317Z" stroke="#1565D8" stroke-width="2.5625" stroke-linecap="round" stroke-linejoin="round"/>
<path d="M11.9593 24.6683C9.61885 25.0613 7.03927 24.6513 5.22844 23.4383C2.81969 21.8325 2.81969 19.2017 5.22844 17.5958C7.05635 16.3829 9.6701 15.9729 12.0105 16.3829" stroke="#1565D8" stroke-width="2.5625" stroke-linecap="round" stroke-linejoin="round"/>
<path d="M20.4997 24.9929C20.3972 24.9758 20.2776 24.9758 20.1751 24.9929C17.8176 24.9075 15.9385 22.9771 15.9385 20.5854C15.9385 18.1425 17.9031 16.1779 20.346 16.1779C22.7889 16.1779 24.7535 18.1596 24.7535 20.5854C24.7364 22.9771 22.8572 24.9246 20.4997 24.9929Z" stroke="#1565D8" stroke-width="2.5625" stroke-linecap="round" stroke-linejoin="round"/>
<path d="M15.5282 30.3742C13.1195 31.98 13.1195 34.6108 15.5282 36.2167C18.2616 38.0446 22.7374 38.0446 25.4707 36.2167C27.8795 34.6108 27.8795 31.98 25.4707 30.3742C22.7545 28.5633 18.2616 28.5633 15.5282 30.3742Z" stroke="#1565D8" stroke-width="2.5625" stroke-linecap="round" stroke-linejoin="round"/>
</svg>
