<svg width="41" height="41" viewBox="0 0 41 41" fill="none" xmlns="http://www.w3.org/2000/svg">
<path d="M24.2926 36.9513C22.2768 36.9513 19.4238 35.5334 17.1688 28.7513L15.9388 25.0613L12.2488 23.8313C5.48383 21.5763 4.06592 18.7234 4.06592 16.7075C4.06592 14.7088 5.48383 11.8388 12.2488 9.5667L26.7526 4.73211C30.3742 3.5192 33.398 3.87795 35.2601 5.72295C37.1222 7.56795 37.4809 10.6088 36.268 14.2304L31.4334 28.7342C29.1613 35.5334 26.3084 36.9513 24.2926 36.9513ZM13.0518 12.0096C8.30258 13.5984 6.61133 15.4775 6.61133 16.7075C6.61133 17.9375 8.30258 19.8167 13.0518 21.3884L17.3568 22.8234C17.7326 22.9429 18.0401 23.2504 18.1597 23.6263L19.5947 27.9313C21.1663 32.6804 23.0626 34.3717 24.2926 34.3717C25.5226 34.3717 27.4017 32.6804 28.9905 27.9313L33.8251 13.4275C34.6963 10.7967 34.5426 8.6442 33.4322 7.53378C32.3217 6.42336 30.1692 6.2867 27.5555 7.15795L13.0518 12.0096Z" fill="#292D32"/>
<path d="M17.2711 24.6C16.9465 24.6 16.622 24.4804 16.3657 24.2242C15.8703 23.7288 15.8703 22.9088 16.3657 22.4134L22.4815 16.2804C22.977 15.785 23.797 15.785 24.2924 16.2804C24.7878 16.7759 24.7878 17.5959 24.2924 18.0913L18.1765 24.2242C17.9374 24.4804 17.5957 24.6 17.2711 24.6Z" fill="#292D32"/>
</svg>
