<svg width="41" height="41" viewBox="0 0 41 41" fill="none" xmlns="http://www.w3.org/2000/svg">
<path d="M20.4998 36.9854C19.9703 36.9854 19.4578 36.917 19.0307 36.7633C12.5048 34.5254 2.13525 26.5816 2.13525 14.8454C2.13525 8.86619 6.96984 4.01453 12.9148 4.01453C15.8019 4.01453 18.5011 5.14203 20.4998 7.15786C22.4986 5.14203 25.1978 4.01453 28.0848 4.01453C34.0298 4.01453 38.8644 8.88328 38.8644 14.8454C38.8644 26.5987 28.4948 34.5254 21.969 36.7633C21.5419 36.917 21.0294 36.9854 20.4998 36.9854ZM12.9148 6.57703C8.38775 6.57703 4.69775 10.2841 4.69775 14.8454C4.69775 26.5133 15.9215 33.0049 19.8678 34.3545C20.1753 34.457 20.8415 34.457 21.149 34.3545C25.0782 33.0049 36.319 26.5304 36.319 14.8454C36.319 10.2841 32.629 6.57703 28.1019 6.57703C25.5053 6.57703 23.0965 7.78994 21.5419 9.89119C21.0636 10.5404 19.9703 10.5404 19.4919 9.89119C17.9032 7.77286 15.5115 6.57703 12.9148 6.57703Z" fill="#292D32"/>
</svg>
