<svg width="33" height="31" viewBox="0 0 33 31" fill="none" xmlns="http://www.w3.org/2000/svg">
<path d="M12.9766 13.9375C12.9766 13.6826 13.0778 13.4382 13.258 13.258C13.4382 13.0778 13.6826 12.9766 13.9375 12.9766H19.0625C19.3174 12.9766 19.5618 13.0778 19.742 13.258C19.9222 13.4382 20.0234 13.6826 20.0234 13.9375C20.0234 14.1924 19.9222 14.4368 19.742 14.617C19.5618 14.7972 19.3174 14.8984 19.0625 14.8984H13.9375C13.6826 14.8984 13.4382 14.7972 13.258 14.617C13.0778 14.4368 12.9766 14.1924 12.9766 13.9375ZM32.8359 7.53125V28.0312C32.8359 28.6259 32.5997 29.1962 32.1792 29.6167C31.7587 30.0372 31.1884 30.2734 30.5938 30.2734H2.40625C1.81158 30.2734 1.24128 30.0372 0.820784 29.6167C0.400292 29.1962 0.164062 28.6259 0.164062 28.0312V7.53125C0.164062 6.93658 0.400292 6.36628 0.820784 5.94578C1.24128 5.52529 1.81158 5.28906 2.40625 5.28906H9.13281V3.6875C9.13281 2.75303 9.50403 1.85683 10.1648 1.19605C10.8256 0.535281 11.7218 0.164063 12.6562 0.164062H20.3438C21.2782 0.164063 22.1744 0.535281 22.8352 1.19605C23.496 1.85683 23.8672 2.75303 23.8672 3.6875V5.28906H30.5938C31.1884 5.28906 31.7587 5.52529 32.1792 5.94578C32.5997 6.36628 32.8359 6.93658 32.8359 7.53125ZM11.0547 5.28906H21.9453V3.6875C21.9453 3.26274 21.7766 2.85538 21.4762 2.55502C21.1759 2.25467 20.7685 2.08594 20.3438 2.08594H12.6562C12.2315 2.08594 11.8241 2.25467 11.5238 2.55502C11.2234 2.85538 11.0547 3.26274 11.0547 3.6875V5.28906ZM2.08594 7.53125V14.3843C6.49863 16.8232 11.4582 18.1023 16.5 18.1016C21.5421 18.1024 26.5018 16.8228 30.9141 14.3827V7.53125C30.9141 7.4463 30.8803 7.36482 30.8202 7.30475C30.7602 7.24468 30.6787 7.21094 30.5938 7.21094H2.40625C2.3213 7.21094 2.23983 7.24468 2.17975 7.30475C2.11968 7.36482 2.08594 7.4463 2.08594 7.53125ZM30.9141 28.0312V16.5593C26.4503 18.8359 21.5108 20.023 16.5 20.0234C11.4893 20.024 6.54968 18.8374 2.08594 16.5609V28.0312C2.08594 28.1162 2.11968 28.1977 2.17975 28.2577C2.23983 28.3178 2.3213 28.3516 2.40625 28.3516H30.5938C30.6787 28.3516 30.7602 28.3178 30.8202 28.2577C30.8803 28.1977 30.9141 28.1162 30.9141 28.0312Z" fill="#1565D8"/>
</svg>
