<svg width="88" height="38" viewBox="0 0 88 38" fill="none" xmlns="http://www.w3.org/2000/svg">
<rect x="0.399902" y="3.9274" width="30.4997" height="30.1452" rx="15.0726" fill="#1565D8"/>
<path fill-rule="evenodd" clip-rule="evenodd" d="M9.66212 26.2919C8.26398 26.9009 6.73232 27.0904 5.24913 26.857C4.30114 26.7079 3.86024 25.6782 4.21135 24.7851C4.56246 23.892 5.58622 23.491 6.54579 23.4781C7.13533 23.4702 7.72319 23.3459 8.27421 23.1058C9.36314 22.6315 10.219 21.744 10.6536 20.6385C11.0882 19.5331 11.0658 18.3003 10.5914 17.2114C10.3514 16.6604 10.0056 16.169 9.57927 15.7618C8.88537 15.0988 8.40879 14.108 8.7599 13.2149C9.11101 12.3218 10.135 11.868 10.9308 12.4044C11.5728 12.8371 12.1477 13.3609 12.6374 13.9585C12.7603 14.1084 12.9936 14.1085 13.1165 13.9585C14.2485 12.5773 15.8123 11.6171 17.5563 11.2327C19.3002 10.8483 21.1228 11.062 22.7305 11.8393C24.3383 12.6167 25.6376 13.9125 26.4194 15.5181C26.8729 16.4495 27.1369 17.4537 27.2046 18.4735C27.2862 19.7027 26.0645 20.4784 24.8608 20.2165C23.6571 19.9547 22.9585 18.6843 22.4512 17.5617C22.4375 17.5313 22.4233 17.501 22.4086 17.471C22.0653 16.7659 21.4947 16.1969 20.7887 15.8555C20.0827 15.5141 19.2823 15.4203 18.5165 15.5891C17.7507 15.7579 17.0639 16.1795 16.5669 16.7861C16.0698 17.3926 15.7913 18.1488 15.7762 18.9329C15.7612 19.717 16.0104 20.4833 16.4838 21.1085C16.9572 21.7337 17.6273 22.1814 18.386 22.3795C18.4184 22.3879 18.4509 22.3959 18.4834 22.4034C19.6838 22.6803 21.0666 23.1156 21.5598 24.2445C22.0531 25.3733 21.5325 26.7235 20.3113 26.885C19.2981 27.019 18.2615 26.9574 17.2592 26.6957C15.5313 26.2446 14.0055 25.2251 12.9274 23.8014C12.9022 23.7681 12.8518 23.7681 12.8266 23.8015C12.01 24.8798 10.9242 25.7421 9.66212 26.2919Z" fill="white"/>
<mask id="path-3-outside-1_109_433" maskUnits="userSpaceOnUse" x="33.4541" y="5" width="22" height="27" fill="black">
<rect fill="white" x="33.4541" y="5" width="22" height="27"/>
<path d="M48.8811 7.7785C50.699 7.7785 51.608 8.79921 51.608 10.8406C51.608 11.3789 51.4912 11.648 51.2576 11.648C51.1256 11.648 50.8108 11.5008 50.3131 11.2062C49.8256 10.9016 49.4193 10.6933 49.0943 10.5816C47.6522 10.084 46.3725 9.83514 45.2553 9.83514C44.1381 9.83514 43.3713 10.1094 42.9549 10.6578C42.376 11.4195 42.0865 12.8211 42.0865 14.8625C42.0865 15.5937 42.3354 16.1371 42.833 16.4926C43.3307 16.848 43.8994 17.0258 44.5393 17.0258C45.1893 17.0258 45.8443 16.8074 46.5045 16.3707C47.1748 15.9238 47.515 15.7004 47.5252 15.7004C48.033 15.7004 48.3783 15.8984 48.5611 16.2945C48.7541 16.6906 48.8506 17.3355 48.8506 18.2293C48.8506 19.8035 48.49 20.5906 47.769 20.5906C47.576 20.5906 47.1748 20.3469 46.5654 19.8594C45.9561 19.3617 45.3111 19.1129 44.6307 19.1129C43.4627 19.1129 42.6857 19.3617 42.2998 19.8594C42.0459 20.1844 41.919 21.1594 41.919 22.7844C41.919 24.4094 42.2084 25.5977 42.7873 26.3492C43.1123 26.7656 43.8893 26.9738 45.1182 26.9738C46.3471 26.9738 47.7791 26.7098 49.4143 26.1816C49.8713 26.0395 50.2369 25.8719 50.5111 25.6789C50.7854 25.4859 51.0647 25.2828 51.349 25.0695C51.6334 24.8461 51.8111 24.7344 51.8822 24.7344C52.2276 24.7344 52.4002 24.907 52.4002 25.2523V25.7398C52.4002 26.5219 52.2631 27.1668 51.9889 27.6746C51.7248 28.1723 51.4811 28.4922 51.2576 28.6344C50.8412 28.8984 49.1858 29.0305 46.2912 29.0305H44.2803L43.61 29.0152C39.7811 29.0152 37.5721 28.9746 36.983 28.8934C36.3939 28.802 36.0994 28.5734 36.0994 28.2078C36.0994 27.9742 36.3736 27.6797 36.9221 27.3242C37.4705 26.9687 37.826 26.5219 37.9885 25.9836C38.151 25.4453 38.2322 23.3379 38.2322 19.6613L38.2932 13.7047C38.2932 11.7547 38.1713 10.5461 37.9275 10.0789C37.8158 9.86561 37.501 9.62186 36.983 9.34764C36.465 9.07342 36.2061 8.82967 36.2061 8.61639C36.2061 8.21014 36.5361 7.95624 37.1963 7.85467C37.4705 7.81405 39.6287 7.79374 43.6709 7.79374L48.2412 7.7785H48.8811Z"/>
</mask>
<path d="M50.3131 11.2062L49.2107 12.9701L49.232 12.9834L49.2537 12.9962L50.3131 11.2062ZM49.0943 10.5816L48.4159 12.5479L48.4182 12.5487L49.0943 10.5816ZM42.9549 10.6578L44.6109 11.9164L44.6115 11.9156L42.9549 10.6578ZM42.833 16.4926L44.042 14.8L42.833 16.4926ZM46.5045 16.3707L47.6521 18.1055L47.6583 18.1014L46.5045 16.3707ZM48.5611 16.2945L46.6726 17.1662L46.6817 17.1859L46.6912 17.2055L48.5611 16.2945ZM46.5654 19.8594L45.2498 21.4704L45.2579 21.477L45.2661 21.4836L46.5654 19.8594ZM42.2998 19.8594L43.9389 21.1399L43.9435 21.134L42.2998 19.8594ZM42.7873 26.3492L41.1394 27.6185L41.1476 27.629L42.7873 26.3492ZM49.4143 26.1816L48.7964 24.1955L48.7857 24.1989L48.775 24.2023L49.4143 26.1816ZM51.349 25.0695L52.597 26.7335L52.6157 26.7195L52.6341 26.7051L51.349 25.0695ZM51.9889 27.6746L50.1587 26.6863L50.1551 26.693L50.1515 26.6997L51.9889 27.6746ZM51.2576 28.6344L52.3716 30.391L52.3743 30.3892L51.2576 28.6344ZM44.2803 29.0305L44.233 31.1099L44.2566 31.1105H44.2803V29.0305ZM43.61 29.0152L43.6572 26.9358L43.6336 26.9352H43.61V29.0152ZM36.983 28.8934L36.6641 30.9488L36.6814 30.9515L36.6988 30.9539L36.983 28.8934ZM36.9221 27.3242L38.0534 29.0697L36.9221 27.3242ZM38.2322 19.6613L36.1523 19.64L36.1522 19.6507V19.6613H38.2322ZM38.2932 13.7047L40.3731 13.726L40.3732 13.7153V13.7047H38.2932ZM37.9275 10.0789L39.7716 9.11676L39.7701 9.11376L37.9275 10.0789ZM37.1963 7.85467L36.8915 5.7971L36.88 5.79886L37.1963 7.85467ZM43.6709 7.79374V9.87375L43.6778 9.87373L43.6709 7.79374ZM48.2412 7.7785V5.69849L48.2343 5.69851L48.2412 7.7785ZM48.8811 9.8585C49.403 9.8585 49.4323 9.99394 49.3729 9.92735C49.3545 9.90669 49.528 10.0849 49.528 10.8406H53.688C53.688 9.55487 53.407 8.20208 52.4796 7.16071C51.5113 6.07342 50.1771 5.6985 48.8811 5.6985V9.8585ZM49.528 10.8406C49.528 11.0232 49.4986 10.8801 49.6123 10.6181C49.6792 10.4641 49.8308 10.1885 50.1439 9.94802C50.4852 9.68586 50.8859 9.56804 51.2576 9.56804V13.728C51.7461 13.728 52.2491 13.5766 52.678 13.2471C53.0786 12.9394 53.3033 12.5628 53.4285 12.2742C53.659 11.7431 53.688 11.1964 53.688 10.8406H49.528ZM51.2576 9.56804C51.3445 9.56804 51.4186 9.57399 51.4762 9.58085C51.5344 9.58776 51.5834 9.59648 51.6214 9.60437C51.6954 9.6197 51.7488 9.63618 51.7753 9.64493C51.8036 9.65425 51.8199 9.6609 51.8216 9.66164C51.8241 9.66264 51.8185 9.6604 51.8037 9.6535C51.7731 9.63915 51.7216 9.61346 51.6457 9.57219C51.5709 9.53155 51.4803 9.48005 51.3725 9.41624L49.2537 12.9962C49.5279 13.1585 49.7963 13.3071 50.0412 13.4217C50.1631 13.4787 50.3115 13.5426 50.4733 13.5959C50.6021 13.6384 50.8946 13.728 51.2576 13.728V9.56804ZM51.4155 9.4424C50.8707 9.1019 50.3112 8.80045 49.7705 8.6146L48.4182 12.5487C48.5275 12.5862 48.7805 12.7012 49.2107 12.9701L51.4155 9.4424ZM49.7728 8.6154C48.1866 8.06802 46.6706 7.75514 45.2553 7.75514V11.9151C46.0743 11.9151 47.1178 12.0999 48.4159 12.5479L49.7728 8.6154ZM45.2553 7.75514C43.8928 7.75514 42.3011 8.07922 41.2983 9.40001L44.6115 11.9156C44.534 12.0177 44.4687 12.0258 44.5427 11.9993C44.6349 11.9664 44.8529 11.9151 45.2553 11.9151V7.75514ZM41.2989 9.39923C40.2693 10.7539 40.0065 12.7844 40.0065 14.8625H44.1665C44.1665 12.8578 44.4827 12.0851 44.6109 11.9164L41.2989 9.39923ZM40.0065 14.8625C40.0065 16.1162 40.4687 17.3599 41.624 18.1851L44.042 14.8C44.0562 14.8102 44.0804 14.8304 44.1065 14.8618C44.1329 14.8935 44.152 14.9257 44.1643 14.9524C44.1889 15.0062 44.1665 14.9946 44.1665 14.8625H40.0065ZM41.624 18.1851C42.4914 18.8047 43.4872 19.1058 44.5393 19.1058V14.9458C44.3116 14.9458 44.1699 14.8914 44.042 14.8L41.624 18.1851ZM44.5393 19.1058C45.6787 19.1058 46.7264 18.7179 47.6521 18.1055L45.3569 14.6359C44.9623 14.897 44.6998 14.9458 44.5393 14.9458V19.1058ZM47.6583 18.1014C47.9925 17.8785 48.2403 17.7142 48.4042 17.6066C48.4873 17.552 48.5423 17.5163 48.574 17.496C48.592 17.4846 48.591 17.4854 48.5797 17.4923C48.5771 17.4938 48.5502 17.5101 48.5123 17.5307C48.4967 17.5392 48.4479 17.5656 48.3825 17.5953C48.3516 17.6093 48.2844 17.639 48.196 17.6692C48.151 17.6845 48.0785 17.7076 47.9872 17.7284C47.9403 17.7391 47.8794 17.7513 47.8075 17.7611C47.7373 17.7708 47.6406 17.7804 47.5252 17.7804V13.6204C47.1589 13.6204 46.8819 13.7221 46.853 13.7319C46.764 13.7623 46.6959 13.7923 46.664 13.8068C46.5967 13.8373 46.5454 13.8651 46.5266 13.8753C46.4822 13.8994 46.4464 13.9209 46.4322 13.9294C46.3977 13.9502 46.3632 13.972 46.3374 13.9885C46.2814 14.0242 46.2076 14.0722 46.1206 14.1294C45.9443 14.2452 45.6868 14.416 45.3507 14.64L47.6583 18.1014ZM47.5252 17.7804C47.5142 17.7804 47.348 17.7781 47.1302 17.6532C46.8924 17.5168 46.7439 17.3206 46.6726 17.1662L50.4497 15.4229C50.1956 14.8723 49.783 14.3791 49.1999 14.0446C48.6368 13.7217 48.044 13.6204 47.5252 13.6204V17.7804ZM46.6912 17.2055C46.662 17.1455 46.6907 17.1796 46.7211 17.383C46.7497 17.5741 46.7706 17.8506 46.7706 18.2293H50.9306C50.9306 17.2798 50.8431 16.2293 50.431 15.3835L46.6912 17.2055ZM46.7706 18.2293C46.7706 18.5487 46.752 18.7838 46.7268 18.9484C46.7007 19.1194 46.6749 19.1651 46.6891 19.1341C46.705 19.0993 46.792 18.9259 47.0183 18.7612C47.267 18.5802 47.5458 18.5106 47.769 18.5106V22.6706C48.3527 22.6706 48.9469 22.5026 49.466 22.1249C49.9628 21.7634 50.2751 21.2948 50.4712 20.8665C50.8399 20.0617 50.9306 19.1099 50.9306 18.2293H46.7706ZM47.769 18.5106C47.9567 18.5106 48.1026 18.5392 48.1888 18.5607C48.2783 18.5829 48.3422 18.6072 48.3747 18.6206C48.4353 18.6454 48.4491 18.658 48.4034 18.6302C48.3633 18.6058 48.2976 18.5628 48.2028 18.4942C48.1094 18.4266 47.9971 18.341 47.8648 18.2352L45.2661 21.4836C45.6014 21.7518 45.933 21.9969 46.2433 22.1854C46.3982 22.2795 46.5866 22.3835 46.7957 22.4693C46.9762 22.5433 47.3285 22.6706 47.769 22.6706V18.5106ZM47.8811 18.2483C46.9613 17.4972 45.8639 17.0329 44.6307 17.0329V21.1929C44.7584 21.1929 44.9508 21.2262 45.2498 21.4704L47.8811 18.2483ZM44.6307 17.0329C43.3347 17.0329 41.6699 17.2776 40.6562 18.5847L43.9435 21.134C43.8127 21.3027 43.7006 21.3143 43.8064 21.2804C43.9223 21.2433 44.1773 21.1929 44.6307 21.1929V17.0329ZM40.6607 18.5788C40.3643 18.9582 40.2173 19.3665 40.1371 19.6402C40.049 19.941 39.9916 20.2583 39.9516 20.5658C39.8715 21.1809 39.8389 21.9318 39.8389 22.7844H43.999C43.999 22.0119 44.0299 21.4628 44.0768 21.1029C44.1002 20.9229 44.1222 20.834 44.1293 20.8098C44.1443 20.7585 44.1083 20.9231 43.9389 21.1399L40.6607 18.5788ZM39.8389 22.7844C39.8389 24.5732 40.1419 26.3234 41.1395 27.6185L44.4351 25.0799C44.2749 24.8719 43.999 24.2455 43.999 22.7844H39.8389ZM41.1476 27.629C41.6999 28.3366 42.4661 28.6635 43.0754 28.8268C43.706 28.9958 44.4068 29.0538 45.1182 29.0538V24.8938C44.6006 24.8938 44.2985 24.8478 44.1522 24.8086C44.0847 24.7905 44.0912 24.7844 44.1415 24.813C44.1949 24.8433 44.3105 24.9201 44.427 25.0695L41.1476 27.629ZM45.1182 29.0538C46.6314 29.0538 48.2875 28.7314 50.0536 28.161L48.775 24.2023C47.2707 24.6882 46.0627 24.8938 45.1182 24.8938V29.0538ZM50.0322 28.1677C50.6153 27.9863 51.199 27.7382 51.7082 27.3799L49.3141 23.9779C49.2748 24.0055 49.1273 24.0926 48.7964 24.1955L50.0322 28.1677ZM51.7082 27.3799C52.0006 27.1742 52.2969 26.9587 52.597 26.7335L50.101 23.4055C49.8325 23.607 49.5702 23.7977 49.3141 23.9779L51.7082 27.3799ZM52.6341 26.7051C52.7536 26.6112 52.8036 26.5785 52.8025 26.5792C52.7991 26.5813 52.7866 26.5891 52.7661 26.6005C52.7466 26.6113 52.7105 26.6305 52.6609 26.6528C52.6141 26.6739 52.5316 26.7083 52.422 26.7396C52.321 26.7684 52.1299 26.8144 51.8822 26.8144V22.6544C51.41 22.6544 51.0547 22.8139 50.957 22.8578C50.8043 22.9264 50.6763 23.0021 50.5887 23.0572C50.4099 23.1695 50.2289 23.3044 50.064 23.434L52.6341 26.7051ZM51.8822 26.8144C51.7343 26.8144 51.2413 26.776 50.7999 26.3346C50.3586 25.8933 50.3202 25.4003 50.3202 25.2523H54.4802C54.4802 24.7591 54.3555 24.0071 53.7415 23.3931C53.1275 22.7791 52.3755 22.6544 51.8822 22.6544V26.8144ZM50.3202 25.2523V25.7398H54.4802V25.2523H50.3202ZM50.3202 25.7398C50.3202 26.2939 50.2211 26.5707 50.1587 26.6863L53.8191 28.6629C54.3051 27.7629 54.4802 26.7498 54.4802 25.7398H50.3202ZM50.1515 26.6997C50.104 26.7893 50.0626 26.861 50.0277 26.9171C49.9926 26.9736 49.9676 27.0088 49.9535 27.0272C49.9389 27.0465 49.9425 27.0391 49.9663 27.0156C49.9891 26.9931 50.0464 26.9397 50.1409 26.8796L52.3743 30.3892C53.0894 29.9341 53.5437 29.1819 53.8262 28.6495L50.1515 26.6997ZM50.1437 26.8778C50.3951 26.7184 50.5502 26.7211 50.3224 26.7647C50.1675 26.7943 49.9142 26.8281 49.5384 26.858C48.7914 26.9176 47.7173 26.9505 46.2912 26.9505V31.1105C47.7597 31.1105 48.9605 31.0773 49.8691 31.0049C50.3209 30.9688 50.7405 30.9201 51.1036 30.8507C51.3938 30.7952 51.912 30.6824 52.3716 30.391L50.1437 26.8778ZM46.2912 26.9505H44.2803V31.1105H46.2912V26.9505ZM44.3275 26.951L43.6572 26.9358L43.5627 31.0947L44.233 31.1099L44.3275 26.951ZM43.61 26.9352C41.7005 26.9352 40.2056 26.9251 39.1198 26.9051C38.5763 26.8951 38.1445 26.8828 37.8191 26.8686C37.6564 26.8616 37.5273 26.8543 37.4282 26.8472C37.379 26.8437 37.3406 26.8405 37.3117 26.8377C37.2974 26.8363 37.2865 26.8351 37.2786 26.8342C37.2706 26.8333 37.267 26.8328 37.2672 26.8329L36.6988 30.9539C37.1419 31.015 37.9788 31.0448 39.0433 31.0644C40.1665 31.0851 41.6905 31.0952 43.61 31.0952V26.9352ZM37.302 26.838C37.1682 26.8172 37.3449 26.8157 37.5953 27.01C37.7386 27.1212 37.8992 27.2924 38.0182 27.5325C38.1379 27.7739 38.1794 28.0121 38.1794 28.2078H34.0194C34.0194 29.048 34.4018 29.7976 35.0453 30.2968C35.5903 30.7196 36.2088 30.8781 36.6641 30.9488L37.302 26.838ZM38.1794 28.2078C38.1794 28.5619 38.0753 28.8285 37.9968 28.9797C37.9201 29.1274 37.8452 29.21 37.8274 29.2291C37.7988 29.2598 37.8454 29.2045 38.0534 29.0697L35.7908 25.5788C35.4503 25.7994 35.0855 26.0691 34.7827 26.3944C34.5261 26.67 34.0194 27.2964 34.0194 28.2078H38.1794ZM38.0534 29.0697C38.9441 28.4923 39.6524 27.669 39.9797 26.5847L35.9972 25.3825C35.9933 25.3955 35.9886 25.407 35.9722 25.4276C35.9531 25.4516 35.903 25.506 35.7908 25.5788L38.0534 29.0697ZM39.9797 26.5847C40.087 26.2294 40.1356 25.8098 40.1663 25.4765C40.2016 25.0941 40.2287 24.6246 40.2497 24.0794C40.2919 22.9865 40.3122 21.5099 40.3122 19.6613H36.1522C36.1522 21.4893 36.1319 22.9047 36.0928 23.9192C36.0732 24.4278 36.0496 24.8158 36.0239 25.0948C35.9937 25.4229 35.9712 25.4687 35.9972 25.3825L39.9797 26.5847ZM40.3121 19.6826L40.3731 13.726L36.2133 13.6834L36.1523 19.64L40.3121 19.6826ZM40.3732 13.7047C40.3732 12.6962 40.3421 11.8292 40.2713 11.127C40.2095 10.5146 40.0954 9.73727 39.7716 9.11676L36.0834 11.041C36.0225 10.9243 36.0277 10.885 36.0553 11.0117C36.0788 11.1192 36.1068 11.2916 36.1323 11.5444C36.1833 12.0508 36.2132 12.7632 36.2132 13.7047H40.3732ZM39.7701 9.11376C39.5135 8.62403 39.1395 8.29158 38.8809 8.09141C38.5965 7.87118 38.2763 7.67881 37.9562 7.50936L36.0098 11.1859C36.1046 11.2361 36.1787 11.2789 36.2349 11.3138C36.2919 11.3493 36.3228 11.3719 36.3343 11.3808C36.3473 11.3909 36.3253 11.3756 36.2851 11.3324C36.264 11.3099 36.2344 11.2759 36.2006 11.23C36.167 11.1843 36.126 11.1224 36.085 11.044L39.7701 9.11376ZM37.9562 7.50936C37.7702 7.41091 37.7607 7.38321 37.8259 7.44451C37.863 7.47947 37.9648 7.58103 38.0643 7.7566C38.1684 7.94043 38.2861 8.23593 38.2861 8.61639H34.1261C34.1261 9.58079 34.6936 10.2092 34.9747 10.4738C35.2989 10.7789 35.6778 11.0102 36.0098 11.1859L37.9562 7.50936ZM38.2861 8.61639C38.2861 8.80468 38.2456 9.03599 38.1284 9.27047C38.0119 9.50331 37.8563 9.66652 37.7218 9.76993C37.4896 9.94859 37.3412 9.93686 37.5126 9.91049L36.88 5.79886C36.3913 5.87405 35.7477 6.04005 35.1854 6.47262C34.5236 6.98174 34.1261 7.74876 34.1261 8.61639H38.2861ZM37.5011 9.91222C37.4136 9.92518 37.4477 9.91637 37.8073 9.90736C38.0953 9.90015 38.5046 9.89392 39.0402 9.88888C40.1094 9.87882 41.6518 9.87374 43.6709 9.87374V5.71374C41.6479 5.71374 40.09 5.71881 39.001 5.72906C38.4575 5.73418 38.0232 5.74065 37.7031 5.74867C37.4546 5.75489 37.1161 5.76385 36.8915 5.79713L37.5011 9.91222ZM43.6778 9.87373L48.2482 9.85849L48.2343 5.69851L43.664 5.71375L43.6778 9.87373ZM48.2412 9.8585H48.8811V5.6985H48.2412V9.8585Z" fill="#1565D8" mask="url(#path-3-outside-1_109_433)"/>
<mask id="path-5-outside-2_109_433" maskUnits="userSpaceOnUse" x="56.959" y="5" width="31" height="26" fill="black">
<rect fill="white" x="56.959" y="5" width="31" height="26"/>
<path d="M72.4469 22.4797C72.5891 22.4797 73.5742 20.5094 75.4024 16.5687C77.2305 12.618 78.3578 10.3176 78.7844 9.66757C79.211 9.01757 79.7035 8.58085 80.2621 8.35741C80.8207 8.12381 81.7094 8.00702 82.9281 8.00702C84.157 8.00702 84.7715 8.29139 84.7715 8.86014L84.4059 9.31717L83.9336 9.81991C83.6289 10.216 83.4106 10.6781 83.2785 11.2062C83.1567 11.7242 83.0957 12.5824 83.0957 13.7808C83.0957 18.8793 83.2278 22.5965 83.4918 24.9324C83.5934 25.8465 83.9235 26.5676 84.482 27.0957C85.0406 27.6137 85.3199 27.959 85.3199 28.1316L84.9391 28.4059C84.4516 28.6293 83.4918 28.741 82.0598 28.741C80.6277 28.741 79.7289 28.5531 79.3633 28.1773L79.211 27.8422C79.211 27.5477 79.3227 26.9434 79.5461 26.0293C79.7695 25.1051 79.8813 24.1859 79.8813 23.2719C79.8813 16.6094 79.668 13.2781 79.2414 13.2781C79.0281 13.2781 78.0582 15.3398 76.3317 19.4633C74.6051 23.5867 73.5438 26.009 73.1477 26.7301C72.7617 27.441 72.2488 27.7965 71.609 27.7965C71.1621 27.7965 69.9383 25.359 67.9375 20.484C65.9469 15.5988 64.7789 13.1562 64.4336 13.1562C64.1492 13.1562 64.007 15.6496 64.007 20.6363C64.007 22.8504 64.0426 24.2113 64.1137 24.7191C64.1848 25.227 64.3016 25.8363 64.4641 26.5473C64.6367 27.2582 64.7231 27.7305 64.7231 27.9641C64.7231 28.1977 64.5656 28.3906 64.2508 28.543C63.9359 28.6953 63.5297 28.7715 63.032 28.7715H62.1941C60.5184 28.7715 59.6805 28.5582 59.6805 28.1316C59.6805 27.9184 59.9648 27.568 60.5336 27.0805C61.1125 26.5828 61.4477 26.1562 61.5391 25.8008C61.6406 25.4352 61.7727 23.607 61.9352 20.3164C62.0977 17.0156 62.1789 14.7762 62.1789 13.598C62.1789 12.4199 62.1078 11.6023 61.9656 11.1453C61.8234 10.6781 61.4934 10.1906 60.9754 9.6828C60.4676 9.17499 60.2137 8.78905 60.2137 8.52499C60.2137 8.19999 61.1531 8.03749 63.032 8.03749C63.7531 8.03749 64.3777 8.13905 64.9059 8.34217C65.434 8.53514 65.952 9.00741 66.4598 9.75897C66.9777 10.5004 68.0543 12.8058 69.6895 16.6754C71.3246 20.5449 72.2438 22.4797 72.4469 22.4797Z"/>
</mask>
<path d="M75.4024 16.5687L77.2892 17.4441L77.2901 17.4422L75.4024 16.5687ZM80.2621 8.35741L81.0346 10.2886L81.0497 10.2826L81.0646 10.2764L80.2621 8.35741ZM84.7715 8.86014L86.3957 10.1595L86.8515 9.58977V8.86014H84.7715ZM84.4059 9.31717L85.9219 10.7413L85.9785 10.6811L86.0301 10.6165L84.4059 9.31717ZM83.9336 9.81991L82.4176 8.39578L82.3474 8.47048L82.285 8.55171L83.9336 9.81991ZM83.2785 11.2062L81.2606 10.7018L81.2571 10.7158L81.2538 10.7298L83.2785 11.2062ZM83.4918 24.9324L85.5591 24.7027L85.5587 24.6988L83.4918 24.9324ZM84.482 27.0957L83.0531 28.6071L83.0604 28.614L83.0678 28.6209L84.482 27.0957ZM85.3199 28.1316L86.5353 29.8196L87.3999 29.1971V28.1316H85.3199ZM84.9391 28.4059L85.8057 30.2967L85.99 30.2123L86.1544 30.0939L84.9391 28.4059ZM79.3633 28.1773L77.4697 29.0381L77.6197 29.368L77.8725 29.6278L79.3633 28.1773ZM79.211 27.8422H77.1309V28.2927L77.3174 28.7029L79.211 27.8422ZM79.5461 26.0293L81.5666 26.5232L81.5679 26.5181L79.5461 26.0293ZM73.1477 26.7301L71.3246 25.7287L71.3196 25.7377L73.1477 26.7301ZM67.9375 20.484L66.0113 21.2689L66.0133 21.2737L67.9375 20.484ZM64.4641 26.5473L62.4364 27.0107L62.4395 27.0245L62.4428 27.0381L64.4641 26.5473ZM60.5336 27.0805L61.8872 28.6597L61.8895 28.6578L60.5336 27.0805ZM61.5391 25.8008L59.5349 25.2441L59.5296 25.2634L59.5246 25.2828L61.5391 25.8008ZM61.9352 20.3164L64.0126 20.419L64.0126 20.4187L61.9352 20.3164ZM61.9656 11.1453L59.9757 11.7509L59.9795 11.7632L61.9656 11.1453ZM60.9754 9.6828L59.5046 11.1536L59.5119 11.1609L59.5192 11.1681L60.9754 9.6828ZM64.9059 8.34217L64.1592 10.2835L64.1756 10.2898L64.192 10.2958L64.9059 8.34217ZM66.4598 9.75897L64.7363 10.9235L64.7454 10.9369L64.7547 10.9502L66.4598 9.75897ZM72.4469 24.5597C73.0189 24.5597 73.4221 24.3282 73.5738 24.2323C73.7563 24.117 73.8839 23.9973 73.9504 23.9312C74.0859 23.7964 74.1825 23.6659 74.2305 23.5988C74.3371 23.45 74.436 23.2847 74.517 23.1432C74.6876 22.8451 74.902 22.4337 75.1528 21.9322C75.6594 20.9189 76.3731 19.4188 77.2892 17.4441L73.5155 15.6934C72.6035 17.6593 71.9105 19.1147 71.432 20.0717C71.1902 20.5554 71.0174 20.8829 70.9062 21.0773C70.8462 21.1821 70.8306 21.2015 70.8489 21.1759C70.8529 21.1704 70.9119 21.086 71.0164 20.982C71.0674 20.9313 71.1813 20.8232 71.3515 20.7156C71.4911 20.6274 71.8838 20.3997 72.4469 20.3997V24.5597ZM77.2901 17.4422C78.2014 15.4727 78.9329 13.9258 79.4867 12.7957C80.064 11.6177 80.3951 11.0043 80.5234 10.8088L77.0454 8.52636C76.7472 8.98084 76.3012 9.84267 75.7512 10.965C75.1776 12.1354 74.4314 13.714 73.5147 15.6953L77.2901 17.4422ZM80.5234 10.8088C80.7843 10.4112 80.9728 10.3134 81.0346 10.2886L79.4896 6.42618C78.4343 6.84831 77.6376 7.6239 77.0454 8.52636L80.5234 10.8088ZM81.0646 10.2764C81.2228 10.2102 81.7625 10.087 82.9281 10.087V5.92702C81.6562 5.92702 80.4186 6.03743 79.4596 6.43844L81.0646 10.2764ZM82.9281 10.087C83.1604 10.087 83.3189 10.1008 83.4175 10.116C83.5224 10.1322 83.5126 10.1429 83.437 10.1079C83.3573 10.071 83.1526 9.95813 82.9685 9.70252C82.7691 9.42569 82.6915 9.11655 82.6915 8.86014H86.8515C86.8515 8.31936 86.6971 7.76139 86.3441 7.27128C86.0064 6.80239 85.5713 6.51177 85.1843 6.33266C84.463 5.99884 83.6375 5.92702 82.9281 5.92702V10.087ZM83.1473 7.56078L82.7817 8.01781L86.0301 10.6165L86.3957 10.1595L83.1473 7.56078ZM82.8899 7.89305L82.4176 8.39578L85.4496 11.244L85.9219 10.7413L82.8899 7.89305ZM82.285 8.55171C81.791 9.19389 81.4557 9.92141 81.2606 10.7018L85.2964 11.7107C85.3654 11.4348 85.4669 11.2381 85.5823 11.0881L82.285 8.55171ZM81.2538 10.7298C81.0722 11.5019 81.0157 12.5706 81.0157 13.7808H85.1757C85.1757 12.5942 85.2412 11.9465 85.3032 11.6826L81.2538 10.7298ZM81.0157 13.7808C81.0157 18.889 81.1469 22.7058 81.425 25.1661L85.5587 24.6988C85.3086 22.4872 85.1757 18.8696 85.1757 13.7808H81.0157ZM81.4245 25.1621C81.5693 26.465 82.0695 27.6773 83.0531 28.6071L85.911 25.5843C85.7774 25.4579 85.6174 25.2279 85.5591 24.7027L81.4245 25.1621ZM83.0678 28.6209C83.1873 28.7318 83.2824 28.8246 83.3561 28.9005C83.4313 28.978 83.4738 29.0272 83.4932 29.0512C83.5185 29.0825 83.4854 29.0472 83.4368 28.957C83.411 28.9092 83.3673 28.8212 83.3278 28.6991C83.2894 28.5802 83.2399 28.3834 83.2399 28.1316H87.3999C87.3999 27.5806 87.1962 27.164 87.0984 26.9826C86.9799 26.7629 86.842 26.5765 86.7277 26.4351C86.497 26.1499 86.2048 25.8566 85.8963 25.5705L83.0678 28.6209ZM84.1046 26.4436L83.7237 26.7179L86.1544 30.0939L86.5353 29.8196L84.1046 26.4436ZM84.0724 26.515C84.1259 26.4905 84.0206 26.5437 83.6131 26.5912C83.2411 26.6345 82.7298 26.661 82.0598 26.661V30.821C82.8218 30.821 83.5063 30.7917 84.0941 30.7233C84.6464 30.659 85.2648 30.5447 85.8057 30.2967L84.0724 26.515ZM82.0598 26.661C81.4169 26.661 80.9917 26.6173 80.7372 26.5641C80.6135 26.5382 80.5717 26.5185 80.5844 26.5242C80.5944 26.5286 80.7127 26.5815 80.8541 26.7268L77.8725 29.6278C78.4894 30.2619 79.2994 30.5135 79.886 30.6361C80.5304 30.7708 81.2707 30.821 82.0598 30.821V26.661ZM81.2569 27.3166L81.1045 26.9815L77.3174 28.7029L77.4697 29.0381L81.2569 27.3166ZM81.291 27.8422C81.291 27.8958 81.2881 27.8275 81.3401 27.5462C81.3861 27.2975 81.4599 26.9597 81.5666 26.5232L77.5256 25.5354C77.3153 26.3958 77.1309 27.2515 77.1309 27.8422H81.291ZM81.5679 26.5181C81.8284 25.4403 81.9613 24.3571 81.9613 23.2719H77.8013C77.8013 24.0148 77.7107 24.7699 77.5244 25.5405L81.5679 26.5181ZM81.9613 23.2719C81.9613 19.9307 81.9081 17.3781 81.7971 15.6437C81.7424 14.79 81.6695 14.0594 81.564 13.5104C81.5148 13.2544 81.4357 12.91 81.2895 12.5836C81.2184 12.425 81.0772 12.1452 80.8191 11.8764C80.5453 11.5913 80.0124 11.1981 79.2414 11.1981V15.3581C78.5238 15.3581 78.0425 14.991 77.8187 14.7579C77.6106 14.5412 77.5177 14.3394 77.4933 14.2849C77.4403 14.1668 77.4479 14.1346 77.4787 14.2951C77.5332 14.5789 77.5936 15.0975 77.6456 15.9095C77.7478 17.5063 77.8013 19.9506 77.8013 23.2719H81.9613ZM79.2414 11.1981C78.4635 11.1981 77.9627 11.6192 77.8574 11.7073C77.6783 11.8573 77.5531 12.0094 77.4865 12.0947C77.3455 12.2753 77.2258 12.4721 77.1356 12.6294C76.9447 12.9619 76.7209 13.4097 76.4719 13.939C75.9672 15.0117 75.2792 16.5914 74.4131 18.6599L78.2503 20.2666C79.1107 18.2117 79.7709 16.6989 80.2361 15.7098C80.4721 15.2083 80.6387 14.8829 80.7436 14.7C80.8012 14.5996 80.8059 14.603 80.7654 14.6548C80.7491 14.6757 80.6683 14.7795 80.5277 14.8972C80.4609 14.9531 79.9927 15.3581 79.2414 15.3581V11.1981ZM74.4131 18.6599C72.6622 22.8413 71.6534 25.13 71.3246 25.7287L74.9707 27.7315C75.4341 26.8879 76.5479 24.3322 78.2503 20.2666L74.4131 18.6599ZM71.3196 25.7377C71.2375 25.889 71.2103 25.8747 71.2887 25.8203C71.3296 25.792 71.3855 25.7628 71.4521 25.7422C71.5183 25.7218 71.5738 25.7165 71.609 25.7165V29.8765C73.222 29.8765 74.3388 28.8957 74.9757 27.7224L71.3196 25.7377ZM71.609 25.7165C72.0501 25.7165 72.3725 25.8635 72.5325 25.9532C72.698 26.0458 72.8003 26.1388 72.838 26.1746C72.9102 26.2432 72.9128 26.2641 72.8438 26.1635C72.7151 25.9757 72.5075 25.618 72.2148 25.0351C71.6391 23.8885 70.8569 22.119 69.8617 19.6942L66.0133 21.2737C67.0189 23.724 67.849 25.6107 68.4971 26.9017C68.8164 27.5375 69.1235 28.0938 69.4125 28.5154C69.5523 28.7195 69.7396 28.9689 69.972 29.1899C70.1109 29.3218 70.6946 29.8765 71.609 29.8765V25.7165ZM69.8637 19.6991C68.8645 17.2469 68.0563 15.3691 67.4451 14.0909C67.1436 13.4604 66.8645 12.9215 66.615 12.5188C66.4956 12.326 66.3376 12.0898 66.1459 11.8773C66.0513 11.7725 65.895 11.613 65.6791 11.4659C65.4877 11.3355 65.0491 11.0762 64.4336 11.0762V15.2362C63.8613 15.2362 63.4723 14.9961 63.3368 14.9038C63.177 14.7949 63.0831 14.6927 63.0574 14.6641C63.0034 14.6044 63.0089 14.5971 63.0787 14.7097C63.2075 14.9176 63.4095 15.2946 63.6921 15.8855C64.2488 17.0498 65.0199 18.8359 66.0113 21.2689L69.8637 19.6991ZM64.4336 11.0762C63.5771 11.0762 63.0333 11.5622 62.8013 11.8334C62.5725 12.1009 62.4553 12.3682 62.4018 12.502C62.2883 12.7864 62.2305 13.0758 62.1968 13.273C62.1231 13.7038 62.0736 14.2661 62.037 14.9078C61.9625 16.2158 61.927 18.1341 61.927 20.6363H66.087C66.087 18.1518 66.1227 16.33 66.1903 15.1447C66.2248 14.5397 66.2642 14.1671 66.2972 13.9745C66.3168 13.86 66.3167 13.9156 66.2654 14.0443C66.2431 14.1001 66.1581 14.309 65.9626 14.5375C65.7639 14.7698 65.2546 15.2362 64.4336 15.2362V11.0762ZM61.927 20.6363C61.927 22.7885 61.9578 24.3219 62.0538 25.0075L66.1736 24.4307C66.1274 24.1008 66.087 22.9123 66.087 20.6363H61.927ZM62.0538 25.0075C62.1357 25.5929 62.2657 26.2639 62.4364 27.0107L66.4918 26.0838C66.3375 25.4088 66.2338 24.861 66.1736 24.4307L62.0538 25.0075ZM62.4428 27.0381C62.5241 27.3726 62.5789 27.6263 62.6122 27.8087C62.6288 27.8994 62.6378 27.9603 62.6422 27.9966C62.6475 28.0395 62.6431 28.0215 62.6431 27.9641H66.8031C66.8031 27.4373 66.6459 26.7176 66.4853 26.0564L62.4428 27.0381ZM62.6431 27.9641C62.6431 27.5687 62.7906 27.2175 62.9933 26.9692C63.1675 26.7555 63.3323 26.6767 63.3448 26.6706L65.1568 30.4153C65.7882 30.1097 66.8031 29.3606 66.8031 27.9641H62.6431ZM63.3448 26.6706C63.3801 26.6536 63.3805 26.6599 63.3266 26.67C63.2724 26.6802 63.1773 26.6915 63.032 26.6915V30.8515C63.7198 30.8515 64.466 30.7495 65.1568 30.4153L63.3448 26.6706ZM63.032 26.6915H62.1941V30.8515H63.032V26.6915ZM62.1941 26.6915C61.3997 26.6915 60.9822 26.6366 60.822 26.5958C60.732 26.5729 60.8841 26.5936 61.1 26.7585C61.222 26.8517 61.393 27.0131 61.5336 27.2636C61.6813 27.5268 61.7605 27.8272 61.7605 28.1316H57.6005C57.6005 29.0393 58.09 29.6942 58.5752 30.0647C59.0005 30.3895 59.4668 30.5435 59.7958 30.6272C60.4734 30.7997 61.3128 30.8515 62.1941 30.8515V26.6915ZM61.7605 28.1316C61.7605 28.3345 61.727 28.5009 61.693 28.6194C61.659 28.7378 61.6191 28.8268 61.5908 28.8829C61.5375 28.9885 61.4951 29.0365 61.5088 29.0196C61.5178 29.0085 61.5502 28.9708 61.6178 28.9044C61.6838 28.8395 61.7723 28.7583 61.8872 28.6597L59.1799 25.5012C58.8539 25.7807 58.5343 26.0833 58.2787 26.3981C58.1502 26.5565 58.0011 26.7625 57.8767 27.0091C57.7594 27.2416 57.6005 27.6344 57.6005 28.1316H61.7605ZM61.8895 28.6578C62.5074 28.1266 63.2907 27.3409 63.5535 26.3188L59.5246 25.2828C59.5525 25.1742 59.5866 25.107 59.5988 25.0847C59.6112 25.0619 59.6108 25.0676 59.5836 25.1022C59.5256 25.1761 59.4025 25.3099 59.1777 25.5032L61.8895 28.6578ZM63.5432 26.3575C63.6219 26.0742 63.6627 25.7218 63.6893 25.4726C63.722 25.1647 63.7551 24.7727 63.7889 24.3053C63.8566 23.3678 63.9311 22.0698 64.0126 20.419L59.8577 20.2138C59.7767 21.8536 59.704 23.115 59.6397 24.0056C59.6074 24.4523 59.5783 24.7915 59.5526 25.0321C59.5208 25.3313 59.507 25.3446 59.5349 25.2441L63.5432 26.3575ZM64.0126 20.4187C64.1749 17.1238 64.2589 14.835 64.2589 13.598H60.0989C60.0989 14.7174 60.0205 16.9074 59.8577 20.2141L64.0126 20.4187ZM64.2589 13.598C64.2589 12.4279 64.1983 11.3198 63.9517 10.5274L59.9795 11.7632C59.9793 11.7626 59.9914 11.8027 60.0075 11.899C60.023 11.9921 60.0392 12.1179 60.0534 12.2814C60.082 12.6108 60.0989 13.0457 60.0989 13.598H64.2589ZM63.9555 10.5397C63.6744 9.61618 63.0866 8.83973 62.4315 8.19753L59.5192 11.1681C59.7009 11.3462 59.8174 11.4895 59.8891 11.5955C59.9606 11.701 59.9762 11.7525 59.9757 11.7509L63.9555 10.5397ZM62.4462 8.21202C62.35 8.11585 62.2778 8.0373 62.2252 7.97559C62.1716 7.91269 62.1474 7.87782 62.1418 7.86928C62.1342 7.85774 62.1637 7.89948 62.1987 7.98908C62.2326 8.07576 62.2937 8.26358 62.2937 8.52499H58.1337C58.1337 9.26682 58.4632 9.84681 58.6664 10.1557C58.9013 10.5126 59.1993 10.8482 59.5046 11.1536L62.4462 8.21202ZM62.2937 8.52499C62.2937 9.0326 62.096 9.45128 61.8615 9.73526C61.6532 9.98747 61.4378 10.1113 61.3479 10.1579C61.1812 10.2444 61.1084 10.2374 61.2728 10.2089C61.5611 10.1591 62.1206 10.1175 63.032 10.1175V5.95749C62.0646 5.95749 61.2149 5.99716 60.5637 6.1098C60.2584 6.16261 59.8333 6.25713 59.4318 6.46548C59.0884 6.64367 58.1337 7.25605 58.1337 8.52499H62.2937ZM63.032 10.1175C63.5648 10.1175 63.9247 10.1934 64.1592 10.2835L65.6525 6.40081C64.8307 6.08474 63.9414 5.95749 63.032 5.95749V10.1175ZM64.192 10.2958C64.1477 10.2797 64.1823 10.2808 64.289 10.3781C64.3968 10.4764 64.5492 10.6466 64.7363 10.9235L68.1832 8.59447C67.5684 7.68457 66.7422 6.79863 65.6197 6.3885L64.192 10.2958ZM64.7547 10.9502C64.8949 11.1509 65.2235 11.7516 65.771 12.9242C66.2937 14.0436 66.9604 15.5609 67.7735 17.485L71.6054 15.8658C70.7834 13.9204 70.0942 12.3501 69.5403 11.1641C69.0113 10.0312 68.5426 9.10844 68.1649 8.56774L64.7547 10.9502ZM67.7735 17.485C68.594 19.4266 69.2468 20.9115 69.7264 21.9211C69.9629 22.4189 70.1771 22.8433 70.3611 23.1606C70.4479 23.3102 70.5652 23.5014 70.705 23.6784C70.7711 23.762 70.8961 23.9122 71.0753 24.0603C71.1832 24.1495 71.6795 24.5597 72.4469 24.5597V20.3997C73.1889 20.3997 73.6542 20.7948 73.7255 20.8537C73.8681 20.9716 73.951 21.0764 73.9693 21.0996C74.0135 21.1556 74.013 21.1654 73.9595 21.0733C73.8629 20.9068 73.7071 20.6057 73.484 20.1361C73.0445 19.2109 72.4201 17.7937 71.6054 15.8658L67.7735 17.485Z" fill="#1565D8" mask="url(#path-5-outside-2_109_433)"/>
</svg>
